# xmcd CD database file
#
# Track frame offsets:
#	150
#	5832
#	22936
#	50988
#	70757
#	94524
#	102526
#	118304
#	143488
#	160048
#	173322
#	188508
#	208206
#	211086
#
# Disc length: 3118 seconds
#
# Revision: 0
# Processed by: cddbd v1.5.2PL0 Copyright (c) Steve Scherf et al.
# Submitted via: CDex 1.51
#
DISCID=b90c2c0e
DTITLE=Corciolli - The Astral City
DYEAR=2008
DGENRE=New Age
TTITLE0=Eternal Reality
TTITLE1=Flower Of Hope
TTITLE2=Water Park
TTITLE3=Invisible Heart
TTITLE4=New World
TTITLE5=Passage
TTITLE6=Infinity
TTITLE7=Blue River
TTITLE8=Fields Of Memories
TTITLE9=The Dream
TTITLE10=Misty
TTITLE11=Under The Stars
TTITLE12=Twilight
TTITLE13=Always
EXTD=YEAR: 2008
EXTT0=
EXTT1=
EXTT2=
EXTT3=
EXTT4=
EXTT5=
EXTT6=
EXTT7=
EXTT8=
EXTT9=
EXTT10=
EXTT11=
EXTT12=
EXTT13=
PLAYORDER=
